<svg xmlns="http://www.w3.org/2000/svg" viewBox="0 0 34.47 28.35"><title>Asset 4</title><g id="Layer_2" data-name="Layer 2"><g id="Layer_1-2" data-name="Layer 1"><path d="M12.23,13.34H4.45V6.67h7.78Z" fill="#80c9ff"/><path d="M21.13,13.34H13.34V6.67h7.79Z" fill="#80c9ff"/><path d="M30,13.34H22.24V6.67H30Z" fill="#80c9ff"/><path d="M32.25,0h-30A2.23,2.23,0,0,0,0,2.22v20a2.23,2.23,0,0,0,2.22,2.22h10v2.78H8.34v1.11H26.13V27.24H22.24V24.46h10a2.23,2.23,0,0,0,2.22-2.22v-20A2.23,2.23,0,0,0,32.25,0ZM21.13,27.24H13.34V24.46h7.79Zm12.23-5a1.11,1.11,0,0,1-1.11,1.11h-30a1.11,1.11,0,0,1-1.11-1.11v-20A1.11,1.11,0,0,1,2.22,1.11h30a1.11,1.11,0,0,1,1.11,1.11Z" fill="#08f"/><path d="M2.22,22.24h30v-20h-30ZM3.34,3.33H31.13v17.8H3.34Z" fill="#08f"/><path d="M5,4.45A.56.56,0,1,1,4.45,5,.56.56,0,0,1,5,4.45Z" fill="#08f"/><path d="M6.67,4.45A.56.56,0,1,1,6.12,5,.56.56,0,0,1,6.67,4.45Z" fill="#08f"/><path d="M8.34,4.45a.56.56,0,0,1,0,1.11.56.56,0,1,1,0-1.11Z" fill="#08f"/><rect x="4.45" y="14.45" width="16.68" height="1.11" fill="#08f"/><rect x="4.45" y="16.68" width="16.68" height="1.11" fill="#08f"/><rect x="4.45" y="18.9" width="16.68" height="1.11" fill="#08f"/><rect x="22.79" y="14.45" width="7.23" height="1.11" fill="#08f"/><rect x="22.79" y="16.68" width="7.23" height="1.11" fill="#08f"/><rect x="22.79" y="18.9" width="7.23" height="1.11" fill="#08f"/></g></g></svg>