<svg xmlns="http://www.w3.org/2000/svg" viewBox="0 0 496 500.93"><title>Asset 3</title><g id="Layer_2" data-name="Layer 2"><g id="Layer_1-2" data-name="Layer 1"><path d="M48,452.93H64v16H48Z" fill="#08f"/><path d="M80,452.93H96v16H80Z" fill="#08f"/><path d="M112,452.93h16v16H112Z" fill="#08f"/><path d="M384,452.93h64v16H384Z" fill="#08f"/><path d="M480,420.93v-264a40,40,0,0,0-40-40H416a112,112,0,0,0-224,0H56a40,40,0,0,0-40,40v264H0v40a40.05,40.05,0,0,0,40,40H456a40.05,40.05,0,0,0,40-40v-40Zm-40-288a24,24,0,0,1,24,24v264H448v-256a16,16,0,0,0-16-16H411.28a111.48,111.48,0,0,0,3.44-16ZM212.65,87.53l84.91,35.38,29.07,87.21a95.85,95.85,0,0,1-114-122.59Zm129.18,117.6-28.68-86L377.23,55a95.82,95.82,0,0,1-35.4,150.12ZM304,20.93a95.56,95.56,0,0,1,61.93,22.76l-63.79,63.79-83.29-34.7A96,96,0,0,1,304,20.93Zm-272,136a24,24,0,0,1,24-24H193.28a110.14,110.14,0,0,0,3.44,16H64a16,16,0,0,0-16,16v256H32Zm448,304a24,24,0,0,1-24,24H40a24,24,0,0,1-24-24v-24H180.82a62.17,62.17,0,0,0,41.81,16h50.75a62.17,62.17,0,0,0,41.81-16H416v-16H308.69l-2.35,2.34a46.29,46.29,0,0,1-33,13.66H222.63a46.33,46.33,0,0,1-33-13.66l-2.34-2.34H64v-256H203a111.76,111.76,0,0,0,202.08,0h27v272h48Z" fill="#08f"/><path d="M392,340.93a23.9,23.9,0,0,0-13.29,4L350.8,324a23.61,23.61,0,0,0,1.2-7.11,24,24,0,1,0-46.59,7.82l-44.8,35.85a23.52,23.52,0,0,0-26.92,1.18l-34.5-23a23.53,23.53,0,0,0,.81-5.85,24,24,0,0,0-48,0,23.53,23.53,0,0,0,.81,5.85l-34.5,23A23.74,23.74,0,0,0,104,356.93a24,24,0,1,0,24,24,23.53,23.53,0,0,0-.81-5.85l34.5-23a23.54,23.54,0,0,0,28.62,0l34.5,23a23.59,23.59,0,0,0-.81,5.85,24,24,0,1,0,46.59-7.83l44.8-35.84a23.69,23.69,0,0,0,25.9-.37l27.91,20.93a23.61,23.61,0,0,0-1.2,7.11,24,24,0,1,0,24-24Zm-288,48a8,8,0,1,1,8-8A8,8,0,0,1,104,388.93Zm72-48a8,8,0,1,1,8-8A8,8,0,0,1,176,340.93Zm72,48a8,8,0,1,1,8-8A8,8,0,0,1,248,388.93Zm80-64a8,8,0,1,1,8-8A8,8,0,0,1,328,324.93Zm64,48a8,8,0,1,1,8-8A8,8,0,0,1,392,372.93Z" fill="#80c9ff"/><path d="M208,180.93H80v112H208Zm-16,96H96v-80h96Z" fill="#08f"/><path d="M112,212.93h64v16H112Z" fill="#08f"/><path d="M112,244.93h64v16H112Z" fill="#08f"/><path d="M224,260.93h16v16H224Z" fill="#08f"/><path d="M256,260.93H416v16H256Z" fill="#08f"/><path d="M377.54,159.8H353.73a2.47,2.47,0,1,0,0,4.93h21.34v1.39l-35.9,6.82h-72l-35.9-6.82v-1.39H344.57a2.47,2.47,0,1,0,0-4.93h-15.9a47.69,47.69,0,0,0,16.89-18.5,25.94,25.94,0,0,0,9.85,1.91,26.19,26.19,0,0,0,0-52.38,26.51,26.51,0,0,0-4.64.41V89.83A5.73,5.73,0,0,0,345,84.11H333.38a2.47,2.47,0,1,0,0,4.93H345a.79.79,0,0,1,.79.79V94H260.52V89.83a.8.8,0,0,1,.8-.79h62.9a2.47,2.47,0,1,0,0-4.93h-62.9a5.73,5.73,0,0,0-5.73,5.72v29.78a48.13,48.13,0,0,0,1.28,11c-4-1.19-8.79-.25-13.16,2.73a2.47,2.47,0,1,0,2.79,4.07c2.86-2,5.86-2.72,8.34-2.23l-9,13.44a2.47,2.47,0,1,0,4.1,2.74l9-13.44a9.49,9.49,0,0,1,1.47,5.3h0a17.91,17.91,0,0,1-3.2,9.92,19.46,19.46,0,0,1-4.22,4.57,15.65,15.65,0,0,1-3.47,2.08h-7.79l-.27-.17c-4.1-2.74-4.36-9.83-.59-16.14a2.46,2.46,0,1,0-4.23-2.53,22.14,22.14,0,0,0-3.31,12.62,14.43,14.43,0,0,0,1.77,6.22h-6.28a2.46,2.46,0,0,0-2.46,2.46v5.9a2.48,2.48,0,0,0,2,2.43l36.26,6.88v7.3a2.48,2.48,0,0,0,2.47,2.47h72.18a2.47,2.47,0,0,0,2.46-2.47v-7.3L378,170.59a2.48,2.48,0,0,0,2-2.43v-5.9A2.47,2.47,0,0,0,377.54,159.8Zm-26.77-40.19V108h0a10.06,10.06,0,0,1,4.64-1.13,10.2,10.2,0,0,1,0,20.4,10.07,10.07,0,0,1-5.05-1.35A48.16,48.16,0,0,0,350.77,119.61Zm-1.35,11.31a15.13,15.13,0,1,0,6-29,15,15,0,0,0-4.64.73V96.27a21.26,21.26,0,1,1-3.18,40.52A45.88,45.88,0,0,0,349.42,130.92Zm-88.9-32h85.31v7.59h0v13.06a42.37,42.37,0,0,1-12.49,30.17,43,43,0,0,1-15.82,10H288.85c-.8-.28-1.59-.59-2.37-.92a12.3,12.3,0,0,0,1.9-9h0c-.79-3.93-3.56-7.16-7.81-9.1a22.76,22.76,0,0,0-13.71-1.32c-.44.09-.88.19-1.31.3a42.63,42.63,0,0,1-5-20.1Zm.79,56.93a23.49,23.49,0,0,0,4-11,20.73,20.73,0,0,1,2.55-.68c6.27-1.25,12.32.64,14.73,4.23l-15.85,3.15a2.47,2.47,0,0,0,.48,4.89,2.81,2.81,0,0,0,.49-.05l15.85-3.15a9.5,9.5,0,0,1-2.67,4.74h0a14.33,14.33,0,0,1-2,1.73H258.09A25.11,25.11,0,0,0,261.31,155.89ZM336.8,182.3H269.56v-4.43H336.8Z" fill="#08f"/><path d="M309.6,68.2l-.11.06Z" fill="#08f"/><path d="M309.49,68.26Z" fill="#08f"/><path d="M314.94,45.81a16.91,16.91,0,0,0-2.68-26.54,2.47,2.47,0,0,0-2.63,4.18,12,12,0,0,1,0,20.27,2.49,2.49,0,0,0,0,4.18,12,12,0,0,1,0,20.28l0,0,0,0a2.47,2.47,0,0,0,2.63,4.17,16.91,16.91,0,0,0,2.68-26.54Zm-4,21.56Zm-.32.2.14-.09Z" fill="#08f"/><path d="M329.61,43.73A2.47,2.47,0,0,0,327,47.9a12,12,0,0,1,0,20.28,2.47,2.47,0,0,0,1.32,4.55,2.43,2.43,0,0,0,1.31-.38,16.9,16.9,0,0,0,0-28.62Z" fill="#08f"/><path d="M293.48,43.72a2.47,2.47,0,0,0-2.63,4.18,12,12,0,0,1,0,20.28,2.46,2.46,0,0,0,1.31,4.55,2.43,2.43,0,0,0,1.31-.38,16.9,16.9,0,0,0,0-28.63Z" fill="#08f"/><circle cx="303.98" cy="116.57" r="97.67" fill="#fff"/><path d="M303.4,18.26a98.24,98.24,0,0,0-42.31,186.93l3.08-59.45s-5.79-1.9-7.06-2.52c-12.28-5.41-21.19-21.33-21.19-42,0-22.55,17.48-42,34.39-42.13h.06c16.92.16,34.4,19.58,34.4,42.13,0,20.67-8.92,36.58-21.18,42l-7.11,2.59,3.44,66.11a96.42,96.42,0,0,0,54.75-2.22l3.05-58.91a31.63,31.63,0,0,1-19.16-13.28c-5.32-8,4.09-78.43,4.09-78.43h6.12V125.2h6.07V59.09h6.65v66.13h6V59.09h6.9v66.13h6.07V59.09h4.69s9.41,70.46,4.09,78.42a31.68,31.68,0,0,1-19,13.25l-.27.1,2.65,50.68A98.25,98.25,0,0,0,303.4,18.26Z" fill="#80c9ff"/><path d="M250.31,91.23a28,28,0,0,1,.84-2.82,1.28,1.28,0,0,0-.71-1.44,1.18,1.18,0,0,0-1.55.34s-.67,1.07-1.64,2.65a28.06,28.06,0,0,0-2.77,6.25,51.86,51.86,0,0,0-1.9,9.07,44.78,44.78,0,0,0-.14,5.26,24.81,24.81,0,0,0,1,5.57c1.93,5.49,3.42,10.81,8.79,16a29.84,29.84,0,0,0,4.7,3.81l.44.31c.27.18.53.34.79.49a8,8,0,0,0,1.89.78,1.12,1.12,0,0,0,1.29-.54,1.14,1.14,0,0,0-.38-1.36,12.28,12.28,0,0,1-1.4-1.53,27.9,27.9,0,0,1-1.8-2.47l-1.57-2.26c-2.62-4-4.12-9.56-6.21-15.26a20.69,20.69,0,0,1-.87-4.21,44.71,44.71,0,0,1-.24-4.49,58.58,58.58,0,0,1,.37-8.34A32.11,32.11,0,0,1,250.31,91.23Z" fill="#80c9ff"/><path d="M303.4,0A116.57,116.57,0,1,0,420,116.57,116.7,116.7,0,0,0,303.4,0Zm0,224.44A107.88,107.88,0,1,1,411.28,116.57,108,108,0,0,1,303.4,224.44Z" fill="#80c9ff"/></g></g></svg>