<svg xmlns="http://www.w3.org/2000/svg" viewBox="0 0 185.56 183.58"><title>Asset 2</title><g id="Layer_2" data-name="Layer 2"><g id="Layer_1-2" data-name="Layer 1"><path d="M166.49,76.31a11.27,11.27,0,0,0-1.22-4.91l-5.18-10.2V49.09a14.57,14.57,0,0,0-14.55-14.56H38.42A14.57,14.57,0,0,0,23.86,49.09V61.2L18.68,71.4a11.27,11.27,0,0,0-1.22,4.91V180.66a2.91,2.91,0,0,0,2.91,2.92H163.58a2.92,2.92,0,0,0,2.92-2.92V76.34S166.49,76.32,166.49,76.31ZM29.68,52.58H56a2.91,2.91,0,1,0,0-5.82H30a8.75,8.75,0,0,1,8.41-6.41H145.54a8.75,8.75,0,0,1,8.73,8.74V59H29.68ZM52.77,87.74h1.57a14.91,14.91,0,0,0,12-6.08,14.91,14.91,0,0,0,12,6.08H80a14.93,14.93,0,0,0,12-6.08,14.9,14.9,0,0,0,12,6.08h1.57a14.91,14.91,0,0,0,12-6.08,14.92,14.92,0,0,0,12,6.08h1.56a14.92,14.92,0,0,0,12-6.08A15,15,0,0,0,149,86.39v79.72H34.93V86.39a15.13,15.13,0,0,0,5.81-4.73A14.93,14.93,0,0,0,52.77,87.74ZM43.65,72.81v-8h19.8v8a9.12,9.12,0,0,1-9.11,9.11H52.77A9.13,9.13,0,0,1,43.65,72.81Zm25.62,0v-8H89.06v8A9.12,9.12,0,0,1,80,81.92H78.38A9.12,9.12,0,0,1,69.27,72.81Zm25.62,0v-8h19.79v8a9.12,9.12,0,0,1-9.11,9.11H104A9.12,9.12,0,0,1,94.89,72.81Zm25.61,0v-8h19.8v8a9.13,9.13,0,0,1-9.12,9.11h-1.56A9.13,9.13,0,0,1,120.5,72.81ZM23.88,74l4.68-9.22h9.27v8a9.12,9.12,0,0,1-9.11,9.11,5.47,5.47,0,0,1-5.44-5.18v-.43A5.38,5.38,0,0,1,23.88,74ZM160.67,177.75H23.28V86.35a11.22,11.22,0,0,0,5.44,1.39h.38V169A2.92,2.92,0,0,0,32,171.93H151.94a2.92,2.92,0,0,0,2.91-2.91V87.73h.38a11.22,11.22,0,0,0,5.44-1.39v91.4Zm0-101.41v.4a5.47,5.47,0,0,1-5.44,5.18,9.12,9.12,0,0,1-9.11-9.11v-8h9.27L160.08,74a5.4,5.4,0,0,1,.59,2.28Z" fill="#0087ff"/><path d="M72.91,47.61a2.92,2.92,0,1,0,.85,2.06A2.95,2.95,0,0,0,72.91,47.61Z" fill="#0087ff"/><path d="M86,152l-9.44-25.6,7.27-19.12a2.36,2.36,0,0,0-1.23-3l-8.89-4a2.35,2.35,0,0,0-3.15,1.26l-4.71,11.62-4.7-11.62A2.36,2.36,0,0,0,58,100.27l-8.88,4a2.34,2.34,0,0,0-1.23,3l7.26,19.12L45.67,152a2.34,2.34,0,0,0,2.2,3.17H83.75A2.35,2.35,0,0,0,86,152ZM74,105.57,77.17,107l-5.69,4.69Zm-5.79,15,8.07-6.64L72.38,124H68.17v-3.5Zm-4.71,0V124H59.24l-3.85-10.14Zm-9-13.51,3.2-1.45,2.49,6.14Zm-3.21,43.43,8-21.71H72.37l8,21.71Z" fill="#80c7ff"/><path d="M124.68,123.36a2.38,2.38,0,0,0-1.67-.69,2.36,2.36,0,0,0-2.35,2.35,2.38,2.38,0,0,0,.69,1.67,2.34,2.34,0,0,0,1.66.69,2.35,2.35,0,0,0,1.67-4Z" fill="#80c7ff"/><path d="M114.49,122.67H97.54a2.36,2.36,0,0,0,0,4.71h16.95a2.36,2.36,0,0,0,0-4.71Z" fill="#80c7ff"/><path d="M136.08,111.36H97.56a2.36,2.36,0,1,0,0,4.71h38.52a2.36,2.36,0,0,0,0-4.71Z" fill="#80c7ff"/><path d="M136.06,100.06H97.54a2.36,2.36,0,0,0,0,4.71h38.52a2.36,2.36,0,1,0,0-4.71Z" fill="#80c7ff"/><path d="M136.08,137.27H97.54a2.35,2.35,0,0,0-2.35,2.35v13.19a2.35,2.35,0,0,0,2.35,2.35h38.54a2.35,2.35,0,0,0,2.35-2.35V139.62A2.35,2.35,0,0,0,136.08,137.27Zm-2.36,13.18H99.9V142h33.82Z" fill="#80c7ff"/><circle cx="162.65" cy="119.79" r="22.91" fill="#80c7ff"/><path d="M178.29,116.63v-3.21h0l-.16-.31c0-.27-.25-.4-.46-.54a12.37,12.37,0,0,1-1.51-.95,3.69,3.69,0,0,1-.93-.52c-1.1-.64-2.19-1.31-3.27-1.93a.79.79,0,0,0-.7-.12h-.38l-2.77,1.76-2.05,1.24a7.7,7.7,0,0,1-2.56,1.24,4.84,4.84,0,0,1-3.4-.68l-.91-.52-2.38-1.51-.33-.17a5.94,5.94,0,0,0-1.39-.88c0-.15-.2-.19-.31-.25h-.14a.15.15,0,0,0-.13,0,.89.89,0,0,0-1.09,0l-2.11,1.24-.27.19-3.29,1.94a1.14,1.14,0,0,0-.59.7h0v9.71a9.26,9.26,0,0,1,0,1.29,1,1,0,0,0,.48.89,10.88,10.88,0,0,0,1.08.74,12.3,12.3,0,0,1,1.32.77c1.26.76,2.44,1.61,3.73,2.29l.64.42,2.15,1.38c.6.36,1.2.69,1.8,1.06l1,.58,2.56,1.61a1.27,1.27,0,0,0,.83.31,1.38,1.38,0,0,0,.95-.31l3.31-1.94c.95-.58,1.93-1.16,2.84-1.8s1.72-1,2.56-1.55l3-1.93c1.09-.7,1.94-1.12,2.81-1.8a1.22,1.22,0,0,0,.21-.81v-4.12A22.41,22.41,0,0,1,178.29,116.63Zm-25.16-.19.53.33h0Zm.64,8.28v-8.49c0-.14,0-.31.16-.35h1c.25,0,.35,0,.33.33s0,1,0,1.51v5.49c0,.1.19,0,.29,0h2.32v1.38h0Zm8.69,0a3.08,3.08,0,0,1-3.14-.69,3.77,3.77,0,0,1-1-2.64,4.14,4.14,0,0,1,.5-1.78l.27-.36a3.21,3.21,0,0,1,1.84-1,2.86,2.86,0,0,1,2.38.66.32.32,0,0,0,.23.19v-.54c0-.17,0-.21.21-.21h.89c.26,0,.31,0,.31.31v5.88c0,.52,0,.31-.31.29h-.83c-.21,0-.27,0-.25-.27a1.61,1.61,0,0,0,0-.31V124s-.11,0-.15.13a4.25,4.25,0,0,1-.93.52Zm8.94.1a.28.28,0,0,1-.18,0,.28.28,0,0,0,.18,0h-4.9c-.29,0-.33,0-.36-.37a1.74,1.74,0,0,1,.52-1.41c1-1.07,1.93-2.19,2.76-3.29l.12-.15h-3.31a7.11,7.11,0,0,1,0-1.13c0-.19.12-.17.25-.17h1.74a2.43,2.43,0,0,0,.66,0h2.19c.29,0,.31,0,.35.35a1.72,1.72,0,0,1-.51,1.39c-.91,1-1.78,2.13-2.67,3.19,0,0-.17.14-.13.23s.15,0,.25,0h2.84c.26,0,.33,0,.31.31s0,.6,0,.89v.12Z" fill="#fff"/><path d="M163.68,121a1.9,1.9,0,0,0-3.41-.85,2,2,0,0,0-.42,1.58,1.92,1.92,0,0,0,2.07,1.79,2.09,2.09,0,0,0,.73-.2.33.33,0,0,1,0-.14.33.33,0,0,0,0,.14A2.08,2.08,0,0,0,163.68,121Z" fill="#fff"/><circle cx="109.52" cy="27.95" r="27.95" fill="#80c7ff"/><path d="M94.51,18h7.57a16.49,16.49,0,0,1,2-6.64,6.52,6.52,0,0,1,5.47-3.81A6.61,6.61,0,0,1,115,11.33,16.33,16.33,0,0,1,117,18h7.57a1.63,1.63,0,0,1,1.63,1.63l-1.51,21.17a4.1,4.1,0,0,1-4,4.17h-22a4.12,4.12,0,0,1-4.27-4,1.09,1.09,0,0,1,0-.18L92.88,19.6A1.63,1.63,0,0,1,94.51,18ZM104,18h11.14a14.41,14.41,0,0,0-1.71-5.69,4.91,4.91,0,0,0-3.83-2.85,4.86,4.86,0,0,0-3.84,2.86A14.27,14.27,0,0,0,104,18Z" fill="#fff"/><path d="M104,37.07a.78.78,0,0,1-.21-1.07.77.77,0,0,1,1.07-.2l.7.46a9.52,9.52,0,0,0,4.76,1.62,3.24,3.24,0,0,0,2.84-1.4h0l.1-.14a3.91,3.91,0,0,0,.41-.91,2.71,2.71,0,0,0-.1-1.86A3.88,3.88,0,0,0,112,31.94h0a7.84,7.84,0,0,0-2-.84,8.17,8.17,0,0,1-4.43-2.51,3.88,3.88,0,0,1,0-4.46,4.33,4.33,0,0,1,3.63-2A9.41,9.41,0,0,1,114,23.22a.76.76,0,1,1-.7,1.36h0a8,8,0,0,0-4.11-1,2.85,2.85,0,0,0-2.38,1.24,2.47,2.47,0,0,0-.12,2.8,6.78,6.78,0,0,0,3.68,1.87,9.84,9.84,0,0,1,2.41,1h0A5.36,5.36,0,0,1,115,33a4.2,4.2,0,0,1,.18,2.88,5,5,0,0,1-.57,1.29l-.13.21h0a4.77,4.77,0,0,1-4.12,2.07,10.94,10.94,0,0,1-5.56-1.82C104.54,37.42,104.28,37.25,104,37.07Z" fill="#80c7ff"/><circle cx="21.38" cy="86.98" r="21.38" fill="#80c7ff"/><path d="M27.2,88l.57-4.49H23.33V80.66c0-1.31.36-2.19,2.22-2.19h2.39v-4a29.49,29.49,0,0,0-3.39-.17,5.4,5.4,0,0,0-5.79,5,4.92,4.92,0,0,0,0,.94v3.39H14.89v4.5h3.88V99.36a15.82,15.82,0,0,0,4.63-.72V88.13Z" fill="#fff"/></g></g></svg>