<svg xmlns="http://www.w3.org/2000/svg" viewBox="0 0 595.28 595.28"><title>Asset 1</title><g id="Layer_2" data-name="Layer 2"><g id="Layer_1-2" data-name="Layer 1"><rect x="48.01" y="134.42" width="86.41" height="163.22" fill="#80c8ff"/><path d="M470.46,345.65V307.24H585.68V0H192V307.24H307.24v38.41H172.82V240h-38.4v19.2h19.2v86.42H28.8V259.23H48V240H9.6V345.65H0V595.28H595.28V345.65ZM211.23,288V19.2H566.47V288H211.23Zm115.21,19.2H451.26v38.41H326.44ZM576.08,576.08H19.2V364.85H576.08V576.08Z" fill="#08f"/><path d="M38.41,556.87H556.88V384.05H38.41Zm19.2-153.62H537.67V537.67H57.61Z" fill="#08f"/><path d="M297.64,432.06a38.41,38.41,0,1,0,38.41,38.4A38.44,38.44,0,0,0,297.64,432.06Zm0,57.61a19.21,19.21,0,1,1,19.2-19.21A19.23,19.23,0,0,1,297.64,489.67Z" fill="#08f"/><rect x="67.21" y="163.22" width="48" height="19.2" fill="#fff"/><rect x="67.21" y="201.63" width="48" height="19.2" fill="#fff"/><path d="M230.43,268.84H403.25V38.41H230.43Zm19.2-19.21V96H384.05V249.63Zm134.42-192v19.2H249.63V57.61Z" fill="#08f"/><rect x="422.46" y="48.01" width="124.82" height="19.2" fill="#80c8ff"/><rect x="422.46" y="86.41" width="124.82" height="19.2" fill="#80c8ff"/><rect x="422.46" y="124.82" width="124.82" height="19.2" fill="#80c8ff"/><rect x="499.27" y="163.22" width="48.01" height="19.2" fill="#80c8ff"/></g></g></svg>